PathFileType	4	(X/Y/Z)	45_1_40_p0_0-138.trc
DataRate	CameraRate	NumFrames	NumMarkers	Units	OrigDataRate	OrigDataStartFrame	OrigNumFrames
52.0	52.0	7	27	m	52.0	34	139
Frame#	Time	RHip			RKnee			RAnkle			RBigToe			RSmallToe			RHeel			LHip			LKnee			LAnkle			LBigToe			LSmallToe			LHeel			Neck			Head			Nose			RShoulder			RElbow			RWrist			RThumb			RIndex			RPinky			LShoulder			LElbow			LWrist			LThumb			LIndex			LPinky			
		X1	Y1	Z1	X2	Y2	Z2	X3	Y3	Z3	X4	Y4	Z4	X5	Y5	Z5	X6	Y6	Z6	X7	Y7	Z7	X8	Y8	Z8	X9	Y9	Z9	X10	Y10	Z10	X11	Y11	Z11	X12	Y12	Z12	X13	Y13	Z13	X14	Y14	Z14	X15	Y15	Z15	X16	Y16	Z16	X17	Y17	Z17	X18	Y18	Z18	X19	Y19	Z19	X20	Y20	Z20	X21	Y21	Z21	X22	Y22	Z22	X23	Y23	Z23	X24	Y24	Z24	X25	Y25	Z25	X26	Y26	Z26	X27	Y27	Z27	
34	0.6538461538461539	0.5256961247268195	0.38806575373718316	0.7989826792552616	0.5636560065001498	0.5856596477198226	1.2501430776459226	0.6142107019576104	0.7847245980895046	1.6728540996212136	0.6074032042382468	0.7051151444255039	1.7555265610211648	0.6718891521528974	0.6759009733120941	1.7382740101376366	0.608378010215348	0.8299930742458572	1.720240580759758	0.3041711281180994	0.4732479317774957	0.8062257787983457	0.3734765068799481	0.6674816287490372	1.2765920121754115	0.41303690331508575	0.8303342141620715	1.7204303426529484	0.4355622833284028	0.6367915879579448	1.7540051944081643	0.3841641897525281	0.707015325194836	1.7689907333910517	0.43577890149315923	0.8677369282428369	1.7480333445214973	0.3682483233252399	0.21843319308111525	0.2987627794094205	0.36961931648531804	0.10927626816177055	0.0689050483257107	0.3757736166066639	0.09167438309514761	0.22006363861536016	0.539059100047371	0.2559565848640939	0.3620430568824621	0.6224939378484665	0.27072721350434503	0.6320864708782493	0.5606278835807009	0.33197159338196136	0.9107911848142874	0.4694259112190744	0.3461581276096724	1.0245527075025693	0.5107339436226821	0.30092529352063896	1.0442672523783805	0.5403610806291744	0.35155991976369794	1.041146659642214	0.22456078355136258	0.26361354777289275	0.3877211861578406	0.19384927517327907	0.3831368238025965	0.6532061719661358	0.23771058905397374	0.3109940711796825	0.922885153157397	0.29864450093388256	0.2715828252093227	1.010850716136837	0.262742370739678	0.31661898809576733	1.0565236439675012	0.2440661378700781	0.3376495157741798	1.0403856937652998
35	0.6730769230769231	0.521289447970268	0.40275197941746593	0.7987127974246042	0.5631293357484713	0.5798843139870193	1.2420440323975093	0.6180410403384051	0.8001111131696832	1.6753074686859746	0.6072571683190493	0.7039390974543308	1.755253076101353	0.6716219231458151	0.6735429677729209	1.7377456264656603	0.6083698051904305	0.8636256737583842	1.7216312949402182	0.304621635717356	0.477573040172431	0.81336700462916	0.3737549595222805	0.6694747819133958	1.2843331738165815	0.41302680943480824	0.8303313523751559	1.720510449137865	0.4354528209075525	0.6355607189675119	1.7534659139635806	0.3868625347181937	0.6744074074093382	1.7606522152467803	0.43116755771552867	0.8653369396156139	1.7483582706042529	0.36823279142491633	0.21850586858889104	0.29873641913422244	0.3697572106393056	0.10885053482238298	0.06905226935191336	0.37951537281471204	0.09292996284371959	0.2192678113442746	0.539073326955151	0.25601924856102415	0.36205827098200744	0.6230034380531646	0.2726105169792618	0.6316951906912527	0.569088227747283	0.3194456480926267	0.9102888440213471	0.47705721539451185	0.34662987012195623	1.0246092040247068	0.5148448891076354	0.30218254935589345	1.0468545454176372	0.5435666374928015	0.36599332719425265	1.0440500582484749	0.2245769763922742	0.2638670250850604	0.38759975078373	0.1843152303812575	0.3935491604015507	0.653073077901397	0.2346002748873541	0.29907470732990193	0.9233228973939708	0.2780291487297942	0.28060191140347085	1.0136127828911818	0.25091461608965077	0.31990846466962936	1.0591113387520463	0.23450391721484337	0.34898961428971526	1.0413733910008272
36	0.6923076923076923	0.5273557266387081	0.39111774078404277	0.8061682055216605	0.5629044346154677	0.5870005263919826	1.2460948450019165	0.6141686750725603	0.7848097138539066	1.6729389976573439	0.6076138283964213	0.7067907010302804	1.755638645890461	0.6663663055578998	0.6852245921772311	1.7405477398817002	0.6039978010596975	0.8491672245481596	1.725261301038997	0.3082601096295202	0.49324887119232724	0.8201532097654854	0.37289017977680927	0.6695921236794271	1.2802696564351401	0.4129395546387229	0.8305226813529198	1.7204271748111057	0.4357982098412129	0.6413760768109009	1.7626777469965718	0.38839217477620025	0.6921705757506332	1.768831012860163	0.43093548465765	0.8656381241367974	1.7484220505605914	0.3681636258276302	0.2184355700526702	0.2987177714488091	0.36589213837437246	0.10772970537900288	0.06994526787552786	0.3753826159335664	0.08992015287067179	0.2171511931873233	0.5390430069178791	0.25605014464318826	0.36204898026083615	0.62313725207267	0.272822267741423	0.6315232118017929	0.5724967745241325	0.3301168556923348	0.9054375913195558	0.49934664370515164	0.33283556386396074	1.0245288965210555	0.5209228451829806	0.2909629445005683	1.0495451222972878	0.553177041638989	0.35343356141726956	1.0381584834215585	0.2245002270655989	0.26388184424248645	0.3875405849116082	0.18318234227666136	0.38333822849260746	0.6584301682532877	0.219704874051357	0.32077045966238366	0.9244905255445265	0.26048326614571177	0.3059623961603287	1.0190057327113589	0.24705178899617564	0.32394443215011365	1.0681230805948114	0.20559784529434802	0.38623727394437274	1.0494613516978715
37	0.7115384615384616	0.527334477628706	0.39150791400175117	0.8062868531473326	0.5617857769253807	0.5908178355003028	1.2542112711632747	0.6141226702134258	0.7846763984650476	1.6729256744273933	0.6104543565483153	0.7197889377510245	1.758398093269852	0.6698179507662667	0.7014349518837092	1.7439713837106414	0.6026695937936342	0.8453761842300714	1.722553849659187	0.30827583563250877	0.4939477899816785	0.8201185489161661	0.3678556416565115	0.6702893607530358	1.2845142148782553	0.4122098549436018	0.8321834771528065	1.724881092180207	0.43605706839092745	0.6429683291181686	1.7630225896138552	0.38389329172825354	0.7113729386175561	1.7748585653511768	0.43122235555614546	0.8665280199455725	1.7485882876858925	0.368172501362878	0.21839626687103192	0.2986887875883552	0.3657286419512127	0.1076680383563652	0.06997215217922302	0.37506348581002835	0.08958613732847041	0.214081283619466	0.5383788531591827	0.25408165038120206	0.35882517379145445	0.6224921014204837	0.27091626106724764	0.6281540556425524	0.576940094084335	0.3173314851348686	0.905451937904194	0.5099537349143994	0.3071581758355442	1.026920735520966	0.5253497567074021	0.29397965094240214	1.0527958264251	0.5639073490749853	0.3678268866363083	1.0401297578657935	0.22456794462157273	0.2638885157552637	0.387573865228661	0.1816585548006164	0.37141856480728735	0.6635841915472553	0.2023909036402124	0.3321789089290189	0.9293801904326722	0.2500069383120469	0.31947507481834087	1.0235128954543398	0.23252677543575292	0.3288820706953976	1.0629799622607536	0.18228720347851057	0.3939106454309398	1.044654233415125
38	0.7307692307692307	0.5316670227347716	0.39405079316176084	0.8092119406410456	0.5606124164564625	0.5937090752625849	1.2601014772370627	0.6136693764116163	0.7867131248377327	1.6777107071024724	0.6105318592698629	0.7202388837419788	1.7579015243611404	0.6705234831131667	0.703427707506631	1.743673224274717	0.604136738194579	0.849189768692504	1.725966302229993	0.30835834259433764	0.493807493253075	0.8201484624069493	0.3674751405925809	0.6652352377562943	1.2759659992813792	0.41155341871512874	0.8267234330212955	1.7152036301284728	0.4358326029783581	0.6391730953046684	1.7549779579452947	0.3842372602549094	0.712837290731245	1.7755352673932066	0.43152953341792266	0.8674431758279847	1.7486066910453042	0.368224395852973	0.21849703235916965	0.2987067178267351	0.36577764951608693	0.1075397723534073	0.06999381104631942	0.3757509571332443	0.09180116086569162	0.22003891187918923	0.5384173779499496	0.2540600057493528	0.3588059811024693	0.6266222334650844	0.28279783681659315	0.6255970687198426	0.5861009090472852	0.2916901818861247	0.9084270012849931	0.5241441703927188	0.2853856972924644	1.028343726070368	0.5334040621698861	0.2954094955224869	1.0519069534248773	0.5689246768527385	0.36514917372322364	1.0285759836870518	0.22464772598596808	0.26430387056911486	0.38736412537835113	0.18145952368147875	0.37162054728180083	0.6633017734123353	0.177764504270133	0.35357477421388506	0.931487912360176	0.23898721194101388	0.3311066936285248	1.0288265147342792	0.20317537765498164	0.2896579178038269	1.057468842076898	0.17000811636358792	0.38853813212493177	1.0420688597872318
39	0.75	0.5425940906409829	0.4214180686385937	0.8061483336967863	0.5640686708499543	0.6086137676719117	1.261235521031167	0.6142426897731209	0.7849052900122819	1.6730142020741565	0.6116217214525388	0.7223575408654048	1.7618941913912378	0.6726211750715906	0.6801371240990538	1.7387972048875338	0.6028476888624863	0.8457034800172993	1.7218967279080908	0.3140756671415968	0.5016618734310265	0.8271709442081786	0.36684417261491414	0.667320038059252	1.2798345711819006	0.4116833029436729	0.8265544091208519	1.7149924101265852	0.43338559738473503	0.6385234532752783	1.765503390541071	0.38536476156577537	0.7113117858063056	1.7737962442651058	0.4310591217571247	0.8650378625958958	1.74806098770606	0.3755924649892245	0.21753008376718297	0.2980169491753851	0.36984435044099906	0.109092330247761	0.06904660209245302	0.375516486773836	0.09104473328799537	0.21709555663179003	0.5422724751054991	0.2546138929707098	0.35813159412913514	0.6302774769028234	0.2834139263420943	0.6253510002414572	0.6137303195056338	0.30148608539838806	0.904140466213007	0.5539083535838925	0.33775563248980667	1.0264034247266196	0.5584795430360273	0.35409836035216674	1.0392826375099518	0.603672668648663	0.33667798336325194	1.0221843880746422	0.2246466399856253	0.26434069980886704	0.38733064022678626	0.1720903880117829	0.3686067768942184	0.649503466586103	0.1531115269696591	0.34564384178477425	0.9206460514980668	0.17145353569155325	0.3841448084483002	1.0311390804861447	0.15150524646162233	0.33828948515195084	1.053406965767615	0.13877519959582335	0.3544590561433406	1.0454260347530586
40	0.7692307692307693	0.5393959610402499	0.42515094750339877	0.8064414265264015	0.5641088448637783	0.6089865890986982	1.261484541969802	0.6136463253782172	0.7864466751425108	1.6776349272177449	0.6125266477994524	0.7214777321380269	1.767229589747357	0.6718734826845729	0.6771025893061073	1.739028257264866	0.6027610643625292	0.8457460751411047	1.721862753074401	0.3141102484108562	0.5014854389975529	0.8272560046537328	0.3662832008103346	0.6689737432540905	1.2840354640760574	0.41291145433715376	0.8302116157820107	1.72027958209665	0.43330762163047315	0.6384686241480467	1.7658977865349408	0.38002397686810163	0.7072800297600459	1.7735643191984931	0.4308364440119053	0.8638014737212065	1.7478665515263452	0.3756273471013805	0.21746438397231774	0.2980195257833025	0.3697898868597472	0.1089316184046884	0.06907678135672972	0.375810204330314	0.0915506854641055	0.220125564072327	0.542332978067639	0.25453356445177056	0.3581664951753063	0.6336140491027843	0.2944669149179954	0.623478827230911	0.6184289092943327	0.2889519155255738	0.9072378085880792	0.5576699344383262	0.34947677383851616	1.0264698146277211	0.5705534186763142	0.3545034401296478	1.0413484017713004	0.6043960371404343	0.33837565593712765	1.022380157694357	0.22465442368576935	0.2644973139785675	0.3872874282352125	0.172640167692993	0.3687809637094998	0.6496797075311912	0.14737592861631055	0.3308334787684408	0.9218485238920069	0.16490217022691633	0.3675315133529346	1.024480683874579	0.14309551244132176	0.33203731760383187	1.0543463375602853	0.13247188725164052	0.36520596181093523	1.0419541074122494
